<?xml version="1.0" encoding="UTF-8" standalone="no"?>
<!-- Created with Inkscape (http://www.inkscape.org/) -->

<svg
   xmlns:dc="http://purl.org/dc/elements/1.1/"
   xmlns:cc="http://creativecommons.org/ns#"
   xmlns:rdf="http://www.w3.org/1999/02/22-rdf-syntax-ns#"
   xmlns:svg="http://www.w3.org/2000/svg"
   xmlns="http://www.w3.org/2000/svg"
   xmlns:xlink="http://www.w3.org/1999/xlink"
   xmlns:sodipodi="http://sodipodi.sourceforge.net/DTD/sodipodi-0.dtd"
   xmlns:inkscape="http://www.inkscape.org/namespaces/inkscape"
   width="210mm"
   height="297mm"
   viewBox="0 0 210 297"
   version="1.1"
   id="svg8"
   sodipodi:docname="icon.svg"
   inkscape:version="0.92.5 (2060ec1f9f, 2020-04-08)">
  <defs
     id="defs2">
    <linearGradient
       id="main"
       inkscape:collect="always">
      <stop
         id="stop915"
         offset="0"
         style="stop-color:#ffffff;stop-opacity:0" />
      <stop
         style="stop-color:#ffffff;stop-opacity:1"
         offset="0.23168644"
         id="stop917" />
      <stop
         id="stop919"
         offset="1"
         style="stop-color:#ffffff;stop-opacity:1" />
    </linearGradient>
    <linearGradient
       inkscape:collect="always"
       xlink:href="#main"
       id="linearGradient919"
       gradientUnits="userSpaceOnUse"
       gradientTransform="translate(210.82018,-765.27605)"
       x1="200.59668"
       y1="351.41116"
       x2="389.57562"
       y2="460.51822" />
    <linearGradient
       inkscape:collect="always"
       xlink:href="#main"
       id="linearGradient921"
       gradientUnits="userSpaceOnUse"
       gradientTransform="translate(864.69589,-1491.3405)"
       x1="-584.19934"
       y1="782.33563"
       x2="-414.38654"
       y2="880.37714" />
  </defs>
  <sodipodi:namedview
     id="base"
     pagecolor="#ffffff"
     bordercolor="#666666"
     borderopacity="1.0"
     inkscape:pageopacity="0.0"
     inkscape:pageshadow="2"
     inkscape:zoom="0.7"
     inkscape:cx="-584.57885"
     inkscape:cy="468.91524"
     inkscape:document-units="mm"
     inkscape:current-layer="layer1"
     showgrid="false"
     inkscape:window-width="3840"
     inkscape:window-height="2065"
     inkscape:window-x="2160"
     inkscape:window-y="755"
     inkscape:window-maximized="1" />
  <metadata
     id="metadata5">
    <rdf:RDF>
      <cc:Work
         rdf:about="">
        <dc:format>image/svg+xml</dc:format>
        <dc:type
           rdf:resource="http://purl.org/dc/dcmitype/StillImage" />
      </cc:Work>
    </rdf:RDF>
  </metadata>
  <g
     inkscape:label="Layer 1"
     inkscape:groupmode="layer"
     id="layer1">
    <path
       id="path815"
       d="m 31.523225,271.80138 c -6.638534,0 -12.319501,-2.3617 -17.042901,-7.08509 C 9.7569014,259.99288 7.3911642,254.30795 7.3831125,247.66148 V 54.540493 c 0,-6.638489 2.3657372,-12.319434 7.0972115,-17.042833 4.731452,-4.723401 10.412419,-7.089093 17.042901,-7.097076 h 86.602585 c 3.21867,0 6.28849,0.603312 9.20946,1.809937 2.92095,1.206625 5.48382,2.916542 7.68861,5.129753 l 58.53973,58.539662 c 2.21275,2.212527 3.92268,4.779394 5.12978,7.700614 1.20708,2.92099 1.81062,5.98682 1.81062,9.19749 v 134.88275 c 0,6.63849 -2.36171,12.32342 -7.08512,17.05481 -4.72341,4.73161 -10.4084,7.0933 -17.05498,7.08509 z M 116.01356,102.82099 V 54.540493 H 31.523225 V 247.66148 H 176.3638 v -132.7707 h -48.28019 c -3.41986,0 -6.28449,-1.15873 -8.59388,-3.47618 -2.3094,-2.31745 -3.46812,-5.18198 -3.47617,-8.59361 M 31.523225,54.540493 v 60.350287 z m 0,0 V 247.66148 Z"
       inkscape:connector-curvature="0"
       style="fill:#ffffff;stroke-width:12.07004929;fill-opacity:1"
       sodipodi:nodetypes="cscsccsccccsscccccccccscccccccc" />
    <g
       id="g866"
       transform="matrix(0.28222221,0,0,0.28222221,33.262755,120.52027)">
      <g
         id="layer1-6"
         inkscape:label="(pdf) background"
         transform="matrix(0.09048806,0,0,0.09048806,-14.15991,84.454917)"
         style="display:none">
        <rect
           style="opacity:1;fill:#040404;fill-opacity:1;stroke-width:10.36050034"
           id="rect995"
           width="7947.0356"
           height="7145.4614"
           x="-1045.6049"
           y="-2102.4253" />
      </g>
      <g
         id="layer3"
         inkscape:label="gradient-logo"
         style="display:inline;opacity:1"
         transform="translate(-156.48372,537.56136)">
        <g
           id="g955"
           transform="matrix(0.09048806,0,0,0.09048806,142.32381,-453.10644)"
           style="stroke-width:11.05119991">
          <g
             id="g869"
             transform="matrix(11.047619,0,0,11.047619,-1572.2888,9377.7107)">
            <g
               style="stroke-width:11.05119991"
               id="g932"
               transform="rotate(-60,226.35754,-449.37199)">
              <path
                 style="opacity:1;fill:url(#linearGradient919);fill-opacity:1;fill-rule:evenodd;stroke:none;stroke-width:33.1534996;stroke-linecap:butt;stroke-linejoin:round;stroke-miterlimit:4;stroke-dasharray:none;stroke-opacity:1"
                 d="m 449.71876,-420.51322 122.19683,211.67512 -56.15706,0.5268 -32.6236,-56.8692 -32.85645,56.5653 -27.90237,-0.011 -14.29086,-24.6896 46.81047,-80.4901 -33.22946,-57.8257 z"
                 id="path3336-6"
                 inkscape:connector-curvature="0"
                 sodipodi:nodetypes="cccccccccc" />
            </g>
            <path
               style="color:#000000;clip-rule:nonzero;display:inline;overflow:visible;visibility:visible;opacity:1;isolation:auto;mix-blend-mode:normal;color-interpolation:sRGB;color-interpolation-filters:linearRGB;solid-color:#000000;solid-opacity:1;fill:url(#linearGradient921);fill-opacity:1;fill-rule:evenodd;stroke:none;stroke-width:33.1534996;stroke-linecap:butt;stroke-linejoin:round;stroke-miterlimit:4;stroke-dasharray:none;stroke-dashoffset:0;stroke-opacity:1;color-rendering:auto;image-rendering:auto;shape-rendering:auto;text-rendering:auto;enable-background:accumulate"
               d="m 309.54892,-710.38827 122.19683,211.67512 -56.15706,0.5268 -32.6236,-56.8692 -32.85645,56.5653 -27.90237,-0.011 -14.29086,-24.6896 46.81047,-80.4901 -33.22946,-57.8256 z"
               id="path4260-0"
               inkscape:connector-curvature="0"
               sodipodi:nodetypes="cccccccccc" />
            <use
               style="stroke-width:11.05119991"
               height="100%"
               width="100%"
               transform="rotate(60,728.23563,-692.24036)"
               id="use3439-6"
               inkscape:transform-center-y="151.59082"
               inkscape:transform-center-x="124.43045"
               xlink:href="#path3336-6"
               y="0"
               x="0" />
            <use
               style="stroke-width:11.05119991"
               height="100%"
               width="100%"
               transform="rotate(180,477.5036,-570.81898)"
               id="use3449-5"
               inkscape:transform-center-y="-139.94592"
               inkscape:transform-center-x="59.669705"
               xlink:href="#path3336-6"
               y="0"
               x="0" />
            <use
               height="100%"
               width="100%"
               transform="rotate(120,407.33916,-716.08356)"
               id="use4354-5"
               xlink:href="#path4260-0"
               y="0"
               x="0"
               style="display:inline;stroke-width:11.05119991" />
            <use
               height="100%"
               width="100%"
               transform="rotate(-120,407.28823,-715.86995)"
               id="use4362-2"
               xlink:href="#path4260-0"
               y="0"
               x="0"
               style="display:inline;stroke-width:11.05119991" />
          </g>
        </g>
      </g>
    </g>
  </g>
</svg>
